<?xml version="1.0" encoding="iso-8859-1"?>
<!-- Generator: Adobe Illustrator 19.0.0, SVG Export Plug-In . SVG Version: 6.00 Build 0)  -->
<svg xmlns="http://www.w3.org/2000/svg" xmlns:xlink="http://www.w3.org/1999/xlink" version="1.1" id="Layer_1" x="0px" y="0px" viewBox="0 0 512 512" style="enable-background:new 0 0 512 512;" xml:space="preserve" width="512" height="512">
<g>
	<circle style="fill:#E0F4FF;" cx="256" cy="256" r="256"/>
	<path style="fill:#BBDCFF;" d="M411.944,123.092l-27.25-27.25l-33.093,33.093l0.24,0.24l-13.677,13.677l66.825,66.825l-17.49,17.49   l-22.333-22.333l-17.245,17.245l-67.309-67.309l-5.286,5.286l-24.514-24.514l-84.968,84.968l2.963,2.963l-71.861,71.861   l211.32,211.32C424.583,482.522,512,379.473,512,256c0-12.644-0.932-25.069-2.703-37.221l-96.52-96.52L411.944,123.092z"/>
	<g>
		<polygon style="fill:#FDBF00;" points="412.796,122.227 384.741,178.336 375.458,173.798 366.175,169.259 375.458,150.694     379.378,142.856 338.121,142.856 366.175,86.746 375.458,91.285 384.741,95.822 371.539,122.227   "/>
		<rect x="385.772" y="204.741" style="fill:#3E5959;" width="20.628" height="51.571"/>
		<rect x="344.516" y="204.741" style="fill:#537983;" width="20.628" height="51.571"/>
		<path style="fill:#00C0F1;" d="M385.772,318.197v10.314c0,16.09-3.713,31.354-10.314,44.97    c-16.709,34.449-51.984,58.172-92.828,58.172c-56.935,0-103.83-46.207-103.83-103.142v-30.943h20.628v30.943    c0,45.588,37.612,82.514,83.201,82.514s82.514-36.926,82.514-82.514v-10.314H385.772z"/>
		<path style="fill:#009AE4;" d="M385.772,318.197v10.314c0,16.09-3.713,31.354-10.314,44.97v-55.284H385.772z"/>
		<path style="fill:#FFB99C;" d="M303.259,225.369c0-11.345-4.538-21.66-12.377-29.087c1.238-3.919,2.062-8.044,2.062-12.17    c0-21.041-15.884-38.575-36.513-41.05c-7.219-12.584-21.523-20.835-36.374-20.835c-12.377,0-23.31,5.569-30.943,14.234    c-7.632-8.665-18.566-14.234-30.943-14.234c-14.852,0-29.155,8.251-36.374,20.835c-20.628,2.475-36.513,20.009-36.513,41.05    c0,4.126,0.825,8.251,2.062,12.17c-7.839,7.427-12.377,17.741-12.377,29.087s4.538,21.66,12.377,29.086    c-1.238,3.919-2.062,8.045-2.062,12.171c0,21.04,15.884,38.575,36.513,41.05c7.219,12.583,21.523,20.835,36.374,20.835    c12.377,0,23.31-5.57,30.943-14.234c7.426,8.664,18.566,14.234,30.943,14.234c14.852,0,29.155-8.252,36.374-20.835    c20.628-2.475,36.513-20.01,36.513-41.05c0-4.126-0.825-8.252-2.062-12.171C298.721,247.029,303.259,236.715,303.259,225.369z"/>
		<path style="fill:#FF9468;" d="M290.882,254.455c1.238,3.919,2.062,8.045,2.062,12.171c0,21.04-15.884,38.575-36.513,41.05    c-7.219,12.583-21.523,20.835-36.374,20.835c-12.377,0-23.517-5.57-30.943-14.234V136.461    c7.632-8.665,18.566-14.234,30.943-14.234c14.852,0,29.155,8.251,36.374,20.835c20.628,2.475,36.513,20.009,36.513,41.05    c0,4.126-0.825,8.251-2.062,12.17c7.839,7.427,12.377,17.741,12.377,29.087S298.721,247.029,290.882,254.455z"/>
		<path style="fill:#FFCEBF;" d="M158.172,307.883c-8.642,0-17.106-5.55-20.027-13.809l-4.311-6.819h-7.292    c-11.372,0-20.628-9.257-20.628-20.628c0-0.454,0.142-0.889,0.172-1.341c3.292,0.832,6.647,1.321,10.041,1.321    c9.76,0,19.722-3.404,28.626-10.062l-12.369-16.519c-8.421,6.295-17.667,7.655-25.373,3.807    c-7.041-3.525-11.412-10.596-11.412-18.463c0-7.867,4.371-14.937,11.412-18.463c7.716-3.868,16.972-2.488,25.373,3.807    l12.369-16.519c-11.998-8.972-25.866-11.692-38.63-8.458c-0.044-0.546-0.209-1.074-0.209-1.624    c0-11.352,9.216-20.588,21.767-20.588c0.03,0,0.05,0,0.081,0l7.786,0.504l2.598-7.363c2.921-8.259,11.385-13.809,20.027-13.809    c11.372,0,20.628,9.257,20.628,20.628v51.571h-20.628v20.628h20.628v51.571C178.801,298.626,169.544,307.883,158.172,307.883z"/>
		<path style="fill:#FFB99C;" d="M250.549,287.214c-0.03,0-0.05,0-0.081,0l-7.786-0.504l-2.599,7.363    c-2.921,8.259-11.384,13.809-20.026,13.809c-11.372,0-20.628-9.257-20.628-20.628v-51.571h20.628v-20.628h-20.628v-51.571    c0-11.372,9.257-20.628,20.628-20.628c8.642,0,17.106,5.55,20.026,13.809l4.311,6.819h7.292c11.372,0,20.628,9.257,20.628,20.628    c0,0.55-0.165,1.076-0.209,1.623c-12.761-3.231-26.633-0.511-38.63,8.46l12.369,16.519c8.4-6.305,17.627-7.695,25.373-3.807    c7.041,3.525,11.412,10.596,11.412,18.463c0,7.867-4.371,14.937-11.412,18.463c-7.736,3.858-16.962,2.488-25.373-3.807    l-12.369,16.519c8.904,6.658,18.866,10.062,28.626,10.062c3.394,0,6.749-0.488,10.041-1.321c0.03,0.452,0.172,0.886,0.172,1.341    C272.316,277.978,263.1,287.214,250.549,287.214z"/>
		<polygon style="fill:#FF9100;" points="384.741,95.822 375.458,114.388 375.458,91.285   "/>
		<polygon style="fill:#FF9100;" points="412.796,122.227 384.741,178.336 375.458,173.798 375.458,150.694 379.378,142.856     375.458,142.856 375.458,122.227   "/>
		<path style="fill:#25D9F8;" d="M323.887,245.998v51.571c0,17.121,13.821,30.943,30.943,30.943h41.257    c17.122,0,30.943-13.822,30.943-30.943v-51.571H323.887z"/>
		<path style="fill:#00C0F1;" d="M427.029,245.998v51.571c0,17.121-13.821,30.943-30.943,30.943h-20.628v-82.514H427.029z"/>
	</g>
</g>















</svg>
