<?xml version="1.0" encoding="iso-8859-1"?>
<!-- Generator: Adobe Illustrator 21.0.0, SVG Export Plug-In . SVG Version: 6.00 Build 0)  -->
<svg xmlns="http://www.w3.org/2000/svg" xmlns:xlink="http://www.w3.org/1999/xlink" version="1.1" id="Capa_1" x="0px" y="0px" viewBox="0 0 512 512" style="enable-background:new 0 0 512 512;" xml:space="preserve" width="512" height="512">
<g>
	<g>
		<g>
			<g>
				<g>
					<g>
						<g>
							<g>
								<g>
									<g>
										<g>
											<g>
												<g>
													<g>
														<g>
															<g>
																<g>
																	<g>
																		<g>
																			<g>
																				<circle style="fill:#FFDE55;" cx="256" cy="256" r="256"/>
																			</g>
																		</g>
																	</g>
																</g>
															</g>
														</g>
													</g>
												</g>
											</g>
										</g>
									</g>
								</g>
							</g>
						</g>
					</g>
				</g>
			</g>
		</g>
	</g>
	<path style="fill:#FF9811;" d="M512,256c0-13.152-0.995-26.072-2.908-38.69c-50.503-50.504-106.52-106.516-106.709-106.693   c-3.795-4.061-295.826,252.345-291.765,256.141c0.322,0.345,18.209,18.239,18.32,18.352c0,0,1.889,16.297,4.876,19.014   c0.175,0.193,56.726,56.751,107.419,107.442C246.121,511.844,251.042,512,256,512C397.385,512,512,397.385,512,256z"/>
	<g>
		<path style="fill:#243145;" d="M179.406,408h-35.625c-8.185,0-14.844-6.659-14.844-14.844v-38.594h65.313v38.594    C194.25,401.341,187.591,408,179.406,408z"/>
		<path style="fill:#121924;" d="M368.219,408h-35.625c-8.185,0-14.844-6.659-14.844-14.844v-38.594h65.313v38.594    C383.063,401.341,376.404,408,368.219,408z"/>
		<path style="fill:#466288;" d="M387.219,372.375H124.781c-11.459,0-20.781-9.322-20.781-20.781V124.781    c0-11.459,9.323-20.781,20.781-20.781h262.438c11.459,0,20.781,9.322,20.781,20.781v226.813    C408,363.053,398.677,372.375,387.219,372.375z"/>
		<path style="fill:#243145;" d="M387.219,104H256v268.375h131.219c11.459,0,20.781-9.322,20.781-20.781V124.781    C408,113.322,398.677,104,387.219,104z"/>
		<path style="fill:#FFFFFF;" d="M349.345,336.75h-186.69l-23.03-23.03V162.655l23.03-23.03h186.69l23.03,23.03V313.72    L349.345,336.75z"/>
		<polygon style="fill:#DAE0E7;" points="349.345,139.625 256,139.625 256,336.75 349.345,336.75 372.375,313.72 372.375,162.655       "/>
		<rect x="276.781" y="193.063" style="fill:#121924;" width="86.688" height="17.813"/>
		<rect x="148.531" y="193.063" style="fill:#243145;" width="86.688" height="17.813"/>
		<path style="fill:#DAE0E7;" d="M300.531,336.75h-89.063v-53.438h89.063V336.75z"/>
		<rect x="247.094" y="225.719" width="17.813" height="23.75"/>
		<path style="fill:#E4187A;" d="M142.594,283.313V265.5c46.163,0,83.719-37.556,83.719-83.719h17.813    C244.125,237.766,198.578,283.313,142.594,283.313z"/>
		<path style="fill:#A3B1C4;" d="M349.345,336.75h-186.69l-23.03-23.03V162.655l23.03-23.03h186.69l23.03,23.03V313.72    L349.345,336.75z M170.033,318.938h171.935l12.595-12.595V170.033l-12.595-12.595H170.033l-12.595,12.595v136.309L170.033,318.938    z"/>
		<path style="fill:#BEC8D6;" d="M300.531,336.75H256v-53.438h44.531V336.75z"/>
		<polygon style="fill:#8799B3;" points="256,139.625 256,157.438 341.967,157.438 354.563,170.033 354.563,306.342     341.967,318.938 256,318.938 256,336.75 349.345,336.75 372.375,313.72 372.375,162.655 349.345,139.625   "/>
		<path style="fill:#466288;" d="M264.906,234.625h-17.813c-11.459,0-20.781-9.323-20.781-20.781V175.25h59.375v38.594    C285.688,225.302,276.365,234.625,264.906,234.625z"/>
		<path style="fill:#243145;" d="M256,234.625h8.906c11.459,0,20.781-9.323,20.781-20.781V175.25H256V234.625z"/>
		<rect x="199" y="283.313" style="fill:#466288;" width="114" height="17.813"/>
		<rect x="256" y="283.313" style="fill:#243145;" width="57" height="17.813"/>
	</g>
</g>















</svg>
