<svg enable-background="new 0 0 512 512" height="512" viewBox="0 0 512 512" width="512" xmlns="http://www.w3.org/2000/svg" xmlns:xlink="http://www.w3.org/1999/xlink"><linearGradient id="SVGID_1_" gradientUnits="userSpaceOnUse" x1="57.637" x2="454.363" y1="454.363" y2="57.637"><stop offset="0" stop-color="#f803fe"/><stop offset="1" stop-color="#0ecbde"/></linearGradient><g id="_x30_4_Chip"><path d="m367.968 341.321v-170.642c0-14.701-11.962-26.663-26.663-26.663h-170.61c-14.701 0-26.663 11.962-26.663 26.663v170.642c0 14.701 11.962 26.663 26.663 26.663h170.611c14.7 0 26.662-11.962 26.662-26.663zm-213.271 0v-170.642c0-8.822 7.176-15.998 15.998-15.998h170.611c8.822 0 15.998 7.176 15.998 15.998v170.642c0 8.822-7.176 15.998-15.998 15.998h-170.611c-8.822 0-15.998-7.176-15.998-15.998zm83.05-141.717c-21.091 0-38.245 17.156-38.245 38.242v69.219c0 2.945 2.385 5.333 5.333 5.333s5.333-2.388 5.333-5.333v-40.225h55.159v40.226c0 2.945 2.385 5.333 5.333 5.333 2.947 0 5.333-2.388 5.333-5.333v-69.219c-.001-21.086-17.155-38.243-38.246-38.243zm27.58 56.57h-55.159v-18.328c0-15.206 12.373-27.577 27.579-27.577s27.579 12.371 27.579 27.577v18.328zm47.17-51.237v102.129c0 2.945-2.385 5.333-5.333 5.333s-5.333-2.388-5.333-5.333v-102.129c0-2.945 2.385-5.333 5.333-5.333s5.333 2.388 5.333 5.333zm49.222-73.057c2.947 0 5.333-2.388 5.333-5.333v-29.665l21.221-21.221c1-1 1.562-2.356 1.562-3.77v-32.136h1.567c7.145 0 12.962-5.812 12.962-12.956v-13.806c0-7.145-5.817-12.956-12.962-12.956h-13.805c-7.145 0-12.956 5.812-12.956 12.956v13.805c0 7.145 5.812 12.956 12.956 12.956h1.573v29.928l-21.221 21.221c-1 1-1.562 2.356-1.562 3.77v31.873c0 2.946 2.385 5.334 5.332 5.334zm15.878-102.79c-1.265 0-2.291-1.028-2.291-2.291v-13.806c0-1.263 1.026-2.291 2.291-2.291h13.805c1.265 0 2.297 1.028 2.297 2.291v13.805c0 1.263-1.031 2.291-2.297 2.291h-13.805zm-90.768 102.79c2.948 0 5.333-2.388 5.333-5.333v-30.113l15.841-21.367c.677-.919 1.047-2.034 1.047-3.177v-32.135h1.568c7.145 0 12.956-5.812 12.956-12.956v-13.806c0-7.145-5.812-12.956-12.956-12.956h-13.805c-7.145 0-12.956 5.812-12.956 12.956v13.805c0 7.145 5.812 12.956 12.956 12.956h1.573v30.376l-15.841 21.367c-.677.919-1.047 2.034-1.047 3.177v31.873c-.002 2.945 2.383 5.333 5.331 5.333zm9.983-102.79c-1.265 0-2.291-1.028-2.291-2.291v-13.806c0-1.263 1.026-2.291 2.291-2.291h13.805c1.265 0 2.291 1.028 2.291 2.291v13.805c0 1.263-1.026 2.291-2.291 2.291h-13.805zm-34.714 102.79c-2.948 0-5.333-2.388-5.333-5.333v-31.144c0-2.945 2.385-5.333 5.333-5.333 2.947 0 5.333 2.388 5.333 5.333v31.144c0 2.945-2.385 5.333-5.333 5.333zm-42.874-.237c2.947 0 5.333-2.388 5.333-5.333v-30.282l19.458-22.986.32.32c4.747 4.737 12.467 4.742 17.216-.003l8.759-8.759c4.752-4.746 4.759-12.441-.005-17.216l-8.764-8.754c-4.749-4.749-12.467-4.749-17.216 0l-8.759 8.757c-4.744 4.744-4.744 12.467.005 17.216l.873.873-21.292 25.155c-.812.963-1.26 2.182-1.26 3.445v32.235c-.001 2.944 2.385 5.332 5.332 5.332zm23.882-76.716 8.759-8.757c.605-.6 1.568-.574 2.135.003l8.764 8.754c.59.594.592 1.547.005 2.13v.003l-8.759 8.757c-.583.588-1.552.588-2.135 0-1.498-1.497-9.299-9.291-8.764-8.757-.588-.589-.593-1.547-.005-2.133zm-122.508-15.172h1.567v32.136c0 1.414.562 2.77 1.562 3.77l21.221 21.221v29.665c0 2.945 2.385 5.333 5.333 5.333s5.333-2.388 5.333-5.333v-31.873c0-1.414-.562-2.77-1.562-3.77l-21.222-21.221v-29.928h1.573c7.145 0 12.956-5.812 12.956-12.956v-13.806c0-7.145-5.812-12.956-12.956-12.956h-13.805c-7.145 0-12.956 5.812-12.956 12.956v13.805c-.001 7.145 5.811 12.957 12.956 12.957zm-2.292-26.762c0-1.263 1.026-2.291 2.291-2.291h13.805c1.265 0 2.291 1.028 2.291 2.291v13.805c0 1.263-1.026 2.291-2.291 2.291h-13.805c-1.265 0-2.291-1.028-2.291-2.291zm59.544 64.939h1.567v48.615c0 2.945 2.385 5.333 5.333 5.333 2.947 0 5.333-2.388 5.333-5.333v-48.615h1.573c7.145 0 12.956-5.814 12.956-12.959v-13.803c0-7.145-5.812-12.959-12.956-12.959h-13.806c-7.145 0-12.956 5.814-12.956 12.959v13.803c-.001 7.145 5.811 12.959 12.956 12.959zm-2.292-26.762c0-1.265 1.026-2.294 2.291-2.294h13.805c1.265 0 2.291 1.028 2.291 2.294v13.803c0 1.265-1.026 2.294-2.291 2.294h-13.804c-1.265 0-2.291-1.029-2.291-2.294v-13.803zm144.678 14.912v9.28c0 5.528 4.327 10.022 9.764 10.387v40.799c0 2.945 2.385 5.333 5.333 5.333s5.333-2.388 5.333-5.333v-40.799c5.437-.365 9.764-4.859 9.764-10.387v-9.28c0-5.765-4.692-10.457-10.457-10.457h-9.28c-5.765 0-10.457 4.692-10.457 10.457zm19.533.208.203 8.863c-.875.02-9.63.221-9.072.208l-.208-9.072h9.077zm-189.488 313.83c-2.947 0-5.333 2.388-5.333 5.333v29.665l-21.221 21.221c-1 1-1.562 2.356-1.562 3.77v32.136h-1.567c-7.145 0-12.962 5.812-12.962 12.956v13.805c0 7.145 5.817 12.956 12.962 12.956h13.805c7.145 0 12.956-5.812 12.956-12.956v-13.805c0-7.145-5.812-12.956-12.956-12.956h-1.573v-29.928l21.221-21.221c1-1 1.562-2.356 1.562-3.77v-31.873c0-2.945-2.385-5.333-5.332-5.333zm-15.878 102.79c1.265 0 2.291 1.029 2.291 2.291v13.805c0 1.263-1.026 2.291-2.291 2.291h-13.805c-1.265 0-2.297-1.029-2.297-2.291v-13.805c0-1.263 1.031-2.291 2.297-2.291zm90.768-102.79c-2.947 0-5.333 2.388-5.333 5.333v30.113l-15.841 21.367c-.677.919-1.047 2.034-1.047 3.177v32.136h-1.567c-7.145 0-12.956 5.812-12.956 12.956v13.805c0 7.145 5.812 12.956 12.956 12.956h13.805c7.145 0 12.956-5.812 12.956-12.956v-13.805c0-7.145-5.812-12.956-12.956-12.956h-1.573v-30.376l15.841-21.367c.677-.919 1.047-2.034 1.047-3.177v-31.873c.001-2.945-2.384-5.333-5.332-5.333zm-9.983 102.79c1.265 0 2.291 1.029 2.291 2.291v13.805c0 1.263-1.026 2.291-2.291 2.291h-13.805c-1.265 0-2.291-1.029-2.291-2.291v-13.805c0-1.263 1.026-2.291 2.291-2.291zm34.714-102.79c2.947 0 5.333 2.388 5.333 5.333v31.144c0 2.945-2.385 5.333-5.333 5.333s-5.333-2.388-5.333-5.333v-31.144c0-2.945 2.385-5.333 5.333-5.333zm42.874.237c-2.948 0-5.333 2.388-5.333 5.333v30.282l-19.461 22.989-.318-.317c-4.749-4.749-12.467-4.749-17.216 0l-8.759 8.757c-4.744 4.744-4.744 12.467.005 17.216l8.764 8.754c4.743 4.743 12.467 4.749 17.216 0l8.759-8.757c4.744-4.744 4.744-12.467-.005-17.216l-.874-.872 21.293-25.155c.812-.963 1.26-2.182 1.26-3.445v-32.236c.002-2.945-2.384-5.333-5.331-5.333zm-23.882 76.716-8.759 8.757c-.594.588-1.552.591-2.135-.003l-8.764-8.754c-.588-.588-.594-1.547-.005-2.133l8.759-8.757c.594-.588 1.552-.591 2.135.003 1.538 1.536 9.305 9.294 8.764 8.754.588.589.593 1.547.005 2.133zm122.508 15.172h-1.567v-32.136c0-1.414-.562-2.77-1.562-3.77l-21.221-21.221v-29.665c0-2.945-2.385-5.333-5.333-5.333s-5.333 2.388-5.333 5.333v31.873c0 1.414.562 2.77 1.562 3.77l21.221 21.221v29.928h-1.573c-7.145 0-12.956 5.812-12.956 12.956v13.805c0 7.145 5.812 12.956 12.956 12.956h13.805c7.145 0 12.956-5.812 12.956-12.956v-13.805c.002-7.144-5.81-12.956-12.955-12.956zm2.292 26.762c0 1.263-1.026 2.291-2.291 2.291h-13.805c-1.265 0-2.291-1.029-2.291-2.291v-13.805c0-1.263 1.026-2.291 2.291-2.291h13.805c1.265 0 2.291 1.029 2.291 2.291zm-59.544-64.939h-1.568v-48.615c0-2.945-2.385-5.333-5.333-5.333s-5.333 2.388-5.333 5.333v48.615h-1.573c-7.145 0-12.956 5.814-12.956 12.959v13.803c0 7.145 5.812 12.959 12.956 12.959h13.805c7.145 0 12.956-5.814 12.956-12.959v-13.803c.003-7.145-5.809-12.959-12.954-12.959zm2.292 26.762c0 1.265-1.026 2.294-2.291 2.294h-13.805c-1.265 0-2.291-1.029-2.291-2.294v-13.803c0-1.265 1.026-2.294 2.291-2.294h13.805c1.265 0 2.291 1.029 2.291 2.294zm-144.678-14.912v-9.28c0-5.528-4.327-10.022-9.764-10.387v-40.798c0-2.945-2.385-5.333-5.333-5.333s-5.333 2.388-5.333 5.333v40.798c-5.437.365-9.764 4.859-9.764 10.387v9.28c0 5.765 4.692 10.457 10.457 10.457h9.28c5.765 0 10.457-4.692 10.457-10.457zm-19.533-.208-.203-8.863c.875-.02 9.63-.221 9.072-.208l.208 9.072h-9.077zm213.224-105.045h40.798c.365 5.437 4.859 9.764 10.387 9.764h9.275c5.765 0 10.457-4.692 10.457-10.457v-9.277c0-5.765-4.692-10.457-10.457-10.457h-9.275c-5.527 0-10.021 4.326-10.387 9.762h-40.799c-2.948 0-5.333 2.388-5.333 5.333s2.387 5.332 5.334 5.332zm60.252-9.97v9.074l-8.858.203c-.02-.884-.221-9.627-.208-9.069zm-29.11-73.929c2.947 0 5.333 2.388 5.333 5.333s-2.385 5.333-5.333 5.333h-31.141c-2.948 0-5.333-2.388-5.333-5.333s2.385-5.333 5.333-5.333zm82.41-149.127h-13.805c-7.145 0-12.956 5.812-12.956 12.956v1.57h-32.136c-1.416 0-2.77.562-3.77 1.562l-21.221 21.221h-29.662c-2.948 0-5.333 2.388-5.333 5.333s2.385 5.333 5.333 5.333h31.87c1.416 0 2.77-.562 3.77-1.562l21.221-21.221h29.928v1.57c0 7.145 5.812 12.956 12.956 12.956h13.805c7.145 0 12.956-5.812 12.956-12.956v-13.805c0-7.146-5.811-12.957-12.956-12.957zm2.291 26.761c0 1.263-1.026 2.291-2.291 2.291h-13.805c-1.265 0-2.291-1.029-2.291-2.291v-13.805c0-1.263 1.026-2.291 2.291-2.291h13.805c1.265 0 2.291 1.028 2.291 2.291zm-40.468 30.493h-13.805c-7.145 0-12.956 5.812-12.956 12.956v1.57h-48.613c-2.948 0-5.333 2.388-5.333 5.333s2.385 5.333 5.333 5.333h48.613v1.57c0 7.145 5.812 12.956 12.956 12.956h13.805c7.145 0 12.956-5.812 12.956-12.956v-13.805c0-7.145-5.811-12.957-12.956-12.957zm2.291 26.762c0 1.263-1.026 2.291-2.291 2.291h-13.805c-1.265 0-2.291-1.029-2.291-2.291v-13.805c0-1.263 1.026-2.291 2.291-2.291h13.805c1.265 0 2.291 1.028 2.291 2.291zm35.886 92.2h-13.805c-7.145 0-12.956 5.812-12.956 12.956v1.57h-30.376l-21.367-15.836c-.922-.682-2.031-1.049-3.177-1.049h-31.87c-2.948 0-5.333 2.388-5.333 5.333s2.385 5.333 5.333 5.333h30.11l21.367 15.836c.922.682 2.031 1.049 3.177 1.049h32.136v1.57c0 7.145 5.812 12.956 12.956 12.956h13.805c7.145 0 12.956-5.812 12.956-12.956v-13.805c0-7.145-5.811-12.957-12.956-12.957zm2.291 26.762c0 1.263-1.026 2.291-2.291 2.291h-13.805c-1.265 0-2.291-1.029-2.291-2.291v-13.805c0-1.263 1.026-2.291 2.291-2.291h13.805c1.265 0 2.291 1.029 2.291 2.291zm-2.291 54.026h-13.805c-7.145 0-12.956 5.812-12.956 12.956v1.57h-29.928l-21.221-21.221c-1-1-2.354-1.562-3.77-1.562h-31.87c-2.948 0-5.333 2.388-5.333 5.333s2.385 5.333 5.333 5.333h29.662l21.221 21.221c1 1 2.354 1.562 3.77 1.562h32.136v1.57c0 7.145 5.812 12.956 12.956 12.956h13.805c7.145 0 12.956-5.812 12.956-12.956v-13.805c0-7.145-5.811-12.957-12.956-12.957zm2.291 26.762c0 1.263-1.026 2.291-2.291 2.291h-13.805c-1.265 0-2.291-1.029-2.291-2.291v-13.805c0-1.263 1.026-2.291 2.291-2.291h13.805c1.265 0 2.291 1.029 2.291 2.291zm-36.687-121.1 8.759-8.764c4.749-4.747 4.749-12.47 0-17.216l-8.759-8.757c-4.739-4.747-12.462-4.744-17.211.003l-.873.873-25.155-21.292c-.963-.815-2.187-1.263-3.447-1.263h-32.235c-2.948 0-5.333 2.388-5.333 5.333s2.385 5.333 5.333 5.333h30.282l22.99 19.462-.322.322c-4.75 4.744-4.77 12.444 0 17.214l8.759 8.759v.003c4.76 4.747 12.483 4.729 17.212-.01zm-18.43-16.297c-.596-.592-.587-1.546 0-2.133 1.659-1.66 9.299-9.305 8.759-8.764.594-.588 1.547-.586 2.13-.003l8.759 8.757c.588.588.588 1.547 0 2.135l-8.759 8.767c-.594.583-1.547.586-2.13.003zm-314.304 107.711c0-2.945-2.385-5.333-5.333-5.333h-31.87c-1.416 0-2.77.562-3.77 1.562l-21.221 21.222h-29.928v-1.57c0-7.145-5.812-12.959-12.956-12.959h-13.806c-7.145 0-12.956 5.814-12.956 12.959v13.805c0 7.145 5.812 12.956 12.956 12.956h13.805c7.145 0 12.956-5.812 12.956-12.956v-1.57h32.136c1.416 0 2.77-.562 3.77-1.562l21.221-21.221h29.662c2.949 0 5.334-2.388 5.334-5.333zm-102.787 29.686c0 1.263-1.026 2.291-2.291 2.291h-13.806c-1.265 0-2.291-1.029-2.291-2.291v-13.805c0-1.265 1.026-2.294 2.291-2.294h13.805c1.265 0 2.291 1.029 2.291 2.294v13.805zm97.455-220.07h-40.799c-.365-5.437-4.859-9.764-10.387-9.764h-9.275c-5.765 0-10.457 4.692-10.457 10.457v9.277c0 5.765 4.692 10.457 10.457 10.457h9.275c5.527 0 10.021-4.326 10.387-9.762h40.799c2.947 0 5.333-2.388 5.333-5.333-.001-2.944-2.386-5.332-5.333-5.332zm-60.252 9.97v-9.074l8.858-.203c.02.884.221 9.627.208 9.069zm65.584 68.597c0 2.945-2.385 5.333-5.333 5.333h-31.141c-2.947 0-5.333-2.388-5.333-5.333s2.385-5.333 5.333-5.333h31.141c2.948 0 5.333 2.388 5.333 5.333zm-80.707 97.205h13.805c7.145 0 12.956-5.812 12.956-12.956v-1.57h48.613c2.947 0 5.333-2.388 5.333-5.333s-2.385-5.333-5.333-5.333h-48.612v-1.57c0-7.145-5.812-12.956-12.956-12.956h-13.806c-7.145 0-12.956 5.812-12.956 12.956v13.805c0 7.145 5.811 12.957 12.956 12.957zm-2.291-26.762c0-1.263 1.026-2.291 2.291-2.291h13.805c1.265 0 2.291 1.029 2.291 2.291v13.805c0 1.263-1.026 2.291-2.291 2.291h-13.805c-1.265 0-2.291-1.029-2.291-2.291zm-35.886-92.2h13.805c7.145 0 12.956-5.812 12.956-12.956v-1.57h30.376l21.367 15.836c.922.682 2.031 1.049 3.177 1.049h31.87c2.947 0 5.333-2.388 5.333-5.333s-2.385-5.333-5.333-5.333h-30.11l-21.367-15.836c-.922-.682-2.031-1.049-3.177-1.049h-32.135v-1.57c0-7.145-5.812-12.956-12.956-12.956h-13.806c-7.145 0-12.956 5.812-12.956 12.956v13.805c0 7.145 5.811 12.957 12.956 12.957zm-2.291-26.762c0-1.263 1.026-2.291 2.291-2.291h13.805c1.265 0 2.291 1.029 2.291 2.291v13.805c0 1.263-1.026 2.291-2.291 2.291h-13.805c-1.265 0-2.291-1.028-2.291-2.291zm2.291-54.026h13.805c7.145 0 12.956-5.812 12.956-12.956v-1.57h29.928l21.221 21.221c1 1 2.354 1.562 3.77 1.562h31.87c2.947 0 5.333-2.388 5.333-5.333s-2.385-5.333-5.333-5.333h-29.661l-21.221-21.221c-1-1-2.354-1.562-3.77-1.562h-32.136v-1.57c0-7.145-5.812-12.956-12.956-12.956h-13.806c-7.145 0-12.956 5.812-12.956 12.956v13.805c0 7.145 5.811 12.957 12.956 12.957zm-2.291-26.762c0-1.263 1.026-2.291 2.291-2.291h13.805c1.265 0 2.291 1.028 2.291 2.291v13.805c0 1.263-1.026 2.291-2.291 2.291h-13.805c-1.265 0-2.291-1.029-2.291-2.291zm36.687 121.1-8.759 8.764c-4.749 4.747-4.749 12.47 0 17.216l8.759 8.757c4.707 4.712 12.435 4.773 17.211-.003l.873-.873 25.155 21.292c.963.815 2.187 1.263 3.447 1.263h32.235c2.947 0 5.333-2.388 5.333-5.333s-2.385-5.333-5.333-5.333h-30.282l-22.99-19.462.322-.322c4.75-4.744 4.77-12.444 0-17.214l-8.76-8.757v-.003c-4.749-4.742-12.472-4.739-17.211.008zm18.43 16.297c.596.592.587 1.546 0 2.133-1.483 1.483-9.294 9.299-8.759 8.764-.594.588-1.547.586-2.13.003l-8.759-8.757c-.588-.588-.588-1.547 0-2.135l8.759-8.767c.598-.588 1.548-.585 2.13-.003z" fill="url(#SVGID_1_)"/></g></svg>