<?xml version="1.0" encoding="utf-8"?>
<!-- Generator: Adobe Illustrator 27.5.0, SVG Export Plug-In . SVG Version: 6.00 Build 0)  -->
<svg version="1.1" id="Layer_1" xmlns="http://www.w3.org/2000/svg" xmlns:xlink="http://www.w3.org/1999/xlink" x="0px" y="0px"
	 viewBox="0 0 634.4 177.5" style="enable-background:new 0 0 634.4 177.5;" xml:space="preserve">
<style type="text/css">
	.st0{fill:#FFFFFF;}
	.st1{fill:none;stroke:#E92938;stroke-width:5;stroke-miterlimit:10;}
	.st2{display:none;}
	.st3{display:inline;fill:#FFFFFF;stroke:#000000;stroke-miterlimit:10;}
	.st4{display:inline;fill:none;}
	.st5{display:inline;fill:none;stroke:#000000;stroke-width:5;stroke-miterlimit:10;}
	.st6{enable-background:new    ;}
	.st7{fill:#444444;}
</style>
<g id="color">
	<circle class="st0" cx="94.8" cy="89.5" r="74.6"/>
	<line class="st1" x1="89.9" y1="79" x2="90.2" y2="168"/>
	<line class="st1" x1="114.2" y1="164.9" x2="114.2" y2="116.6"/>
	<line class="st1" x1="134.1" y1="97.6" x2="113.5" y2="118.2"/>
	<circle class="st1" cx="139.4" cy="92.3" r="8.6"/>
	<line class="st1" x1="103" y1="167.5" x2="103" y2="99.7"/>
	<line class="st1" x1="120.2" y1="83.4" x2="102.4" y2="101.3"/>
	<line class="st1" x1="119.4" y1="58.3" x2="119.4" y2="85.3"/>
	<circle class="st1" cx="119.4" cy="49.8" r="8.6"/>
	<line class="st1" x1="72" y1="162.7" x2="72" y2="124"/>
	<line class="st1" x1="72" y1="88" x2="72" y2="108.1"/>
	<line class="st1" x1="58.6" y1="75.6" x2="72.8" y2="89.8"/>
	<line class="st1" x1="49.6" y1="153.6" x2="49.6" y2="104.1"/>
	<line class="st1" x1="133.1" y1="159" x2="133.1" y2="132.5"/>
	<circle class="st1" cx="133.1" cy="124.6" r="8.6"/>
	<circle class="st1" cx="89.8" cy="71.9" r="8.6"/>
	<circle class="st1" cx="72" cy="116.6" r="8.6"/>
	<circle class="st1" cx="54.1" cy="71.2" r="8.6"/>
	<circle class="st1" cx="49.6" cy="98" r="8.6"/>
	<circle class="st1" cx="94.8" cy="89.5" r="78.5"/>
</g>
<g id="black" class="st2">
	<circle class="st3" cx="94.8" cy="89.5" r="74.6"/>
	<polygon class="st4" points="332,163.4 337.8,163.4 337.8,163.4 	"/>
	<line class="st5" x1="88.8" y1="79.2" x2="89.2" y2="168.2"/>
	<line class="st5" x1="113.2" y1="165.1" x2="113.2" y2="116.8"/>
	<line class="st5" x1="133.1" y1="97.8" x2="112.5" y2="118.4"/>
	<circle class="st5" cx="138.4" cy="92.5" r="8.6"/>
	<line class="st5" x1="102" y1="167.7" x2="102" y2="100"/>
	<line class="st5" x1="119.2" y1="83.6" x2="101.3" y2="101.5"/>
	<line class="st5" x1="118.4" y1="58.6" x2="118.4" y2="85.5"/>
	<circle class="st5" cx="118.4" cy="50" r="8.6"/>
	<line class="st5" x1="71" y1="162.9" x2="71" y2="124.2"/>
	<line class="st5" x1="71" y1="88.2" x2="71" y2="108.3"/>
	<line class="st5" x1="57.6" y1="75.9" x2="71.7" y2="90"/>
	<line class="st5" x1="48.5" y1="153.8" x2="48.5" y2="104.3"/>
	<line class="st5" x1="132" y1="159.2" x2="132" y2="132.8"/>
	<circle class="st5" cx="132" cy="124.9" r="8.6"/>
	<circle class="st5" cx="88.8" cy="72.1" r="8.6"/>
	<circle class="st5" cx="71" cy="116.8" r="8.6"/>
	<circle class="st5" cx="53.1" cy="71.4" r="8.6"/>
	<circle class="st5" cx="48.5" cy="98.2" r="8.6"/>
	<circle class="st5" cx="93.8" cy="89.7" r="78.5"/>
</g>
<g id="text">
	<g class="st6">
		<path class="st7" d="M198.6,110.3v22.4h-3v-22.4H198.6z"/>
		<path class="st7" d="M205.7,116.5v2.6h0.1c1.1-2,2.9-3,5.3-3c1.1,0,2,0.1,2.7,0.4s1.3,0.7,1.7,1.2c0.4,0.5,0.7,1.1,0.9,1.9
			c0.2,0.7,0.3,1.5,0.3,2.4v10.7H214v-11c0-1-0.3-1.8-0.9-2.4c-0.6-0.6-1.4-0.9-2.4-0.9c-0.8,0-1.5,0.1-2.1,0.4
			c-0.6,0.3-1.1,0.6-1.5,1.1c-0.4,0.5-0.7,1-0.9,1.6c-0.2,0.6-0.3,1.3-0.3,2v9.2h-2.7v-16.2H205.7z"/>
		<path class="st7" d="M223.2,116.5v2.6h0.1c1.1-2,2.9-3,5.3-3c1.1,0,2,0.1,2.7,0.4s1.3,0.7,1.7,1.2c0.4,0.5,0.7,1.1,0.9,1.9
			c0.2,0.7,0.3,1.5,0.3,2.4v10.7h-2.7v-11c0-1-0.3-1.8-0.9-2.4c-0.6-0.6-1.4-0.9-2.4-0.9c-0.8,0-1.5,0.1-2.1,0.4
			c-0.6,0.3-1.1,0.6-1.5,1.1c-0.4,0.5-0.7,1-0.9,1.6c-0.2,0.6-0.3,1.3-0.3,2v9.2h-2.7v-16.2H223.2z"/>
		<path class="st7" d="M237.8,121.3c0.3-1,0.8-1.9,1.5-2.7c0.7-0.8,1.5-1.4,2.5-1.8c1-0.4,2.1-0.7,3.4-0.7c1.3,0,2.4,0.2,3.4,0.7
			s1.8,1,2.5,1.8c0.7,0.8,1.2,1.7,1.5,2.7c0.3,1,0.5,2.2,0.5,3.3c0,1.2-0.2,2.3-0.5,3.3c-0.3,1-0.8,1.9-1.5,2.7
			c-0.7,0.8-1.5,1.4-2.5,1.8s-2.1,0.6-3.4,0.6c-1.3,0-2.4-0.2-3.4-0.6c-1-0.4-1.8-1-2.5-1.8c-0.7-0.8-1.2-1.7-1.5-2.7
			c-0.3-1-0.5-2.1-0.5-3.3C237.3,123.4,237.4,122.3,237.8,121.3z M240.5,127.3c0.3,0.8,0.6,1.4,1.1,1.9c0.5,0.5,1,0.9,1.6,1.2
			c0.6,0.3,1.3,0.4,2,0.4s1.3-0.1,2-0.4c0.6-0.3,1.2-0.7,1.6-1.2c0.5-0.5,0.8-1.2,1.1-1.9c0.3-0.8,0.4-1.6,0.4-2.6s-0.1-1.9-0.4-2.6
			c-0.3-0.8-0.6-1.4-1.1-1.9c-0.5-0.5-1-0.9-1.6-1.2c-0.6-0.3-1.3-0.4-2-0.4s-1.3,0.1-2,0.4c-0.6,0.3-1.2,0.7-1.6,1.2
			c-0.5,0.5-0.8,1.2-1.1,1.9c-0.3,0.8-0.4,1.6-0.4,2.6S240.2,126.5,240.5,127.3z"/>
		<path class="st7" d="M260.6,132.7l-6-16.2h3l4.6,13.5h0.1l4.4-13.5h2.8l-5.9,16.2H260.6z"/>
		<path class="st7" d="M286.2,132.7c-0.5,0.3-1.1,0.4-1.9,0.4c-0.7,0-1.2-0.2-1.6-0.6s-0.6-1-0.6-1.9c-0.7,0.9-1.6,1.5-2.6,1.9
			s-2,0.6-3.2,0.6c-0.7,0-1.4-0.1-2.1-0.3c-0.7-0.2-1.2-0.4-1.7-0.8c-0.5-0.4-0.9-0.8-1.1-1.4c-0.3-0.6-0.4-1.3-0.4-2.1
			c0-0.9,0.2-1.7,0.5-2.3c0.3-0.6,0.7-1.1,1.2-1.4c0.5-0.4,1.1-0.6,1.8-0.8s1.3-0.3,2-0.5c0.7-0.1,1.4-0.3,2.1-0.3
			c0.7-0.1,1.2-0.2,1.7-0.3c0.5-0.1,0.9-0.3,1.2-0.6s0.4-0.6,0.4-1.1c0-0.6-0.1-1.1-0.3-1.4c-0.2-0.4-0.5-0.6-0.8-0.8
			c-0.3-0.2-0.7-0.3-1.2-0.4c-0.4-0.1-0.9-0.1-1.3-0.1c-1.1,0-2.1,0.2-2.8,0.6c-0.8,0.4-1.2,1.2-1.2,2.4h-2.7c0-1,0.3-1.9,0.6-2.5
			c0.4-0.7,0.9-1.2,1.5-1.7c0.6-0.4,1.3-0.7,2.2-0.9c0.8-0.2,1.7-0.3,2.6-0.3c0.7,0,1.5,0.1,2.2,0.2c0.7,0.1,1.4,0.3,2,0.6
			c0.6,0.3,1.1,0.8,1.4,1.4c0.4,0.6,0.5,1.3,0.5,2.3v8.3c0,0.6,0,1.1,0.1,1.4c0.1,0.3,0.3,0.4,0.7,0.4c0.2,0,0.5,0,0.8-0.1V132.7z
			 M281.9,124.4c-0.3,0.3-0.8,0.4-1.3,0.5c-0.5,0.1-1.1,0.2-1.7,0.3c-0.6,0.1-1.2,0.2-1.8,0.2s-1.2,0.2-1.6,0.5s-0.9,0.5-1.2,0.9
			c-0.3,0.4-0.5,0.9-0.5,1.6c0,0.4,0.1,0.8,0.3,1.1c0.2,0.3,0.4,0.5,0.7,0.7c0.3,0.2,0.6,0.3,1,0.4c0.4,0.1,0.8,0.1,1.2,0.1
			c0.9,0,1.6-0.1,2.3-0.4s1.1-0.5,1.5-0.9c0.4-0.4,0.7-0.8,0.9-1.2c0.2-0.4,0.3-0.8,0.3-1.2V124.4z"/>
		<path class="st7" d="M295.6,116.5v2.4h-3.2v10.1c0,0.3,0,0.6,0.1,0.8s0.2,0.3,0.3,0.4c0.1,0.1,0.4,0.2,0.6,0.2c0.3,0,0.6,0,1,0
			h1.2v2.4h-2c-0.7,0-1.3,0-1.8-0.1c-0.5-0.1-0.9-0.3-1.2-0.5c-0.3-0.3-0.5-0.6-0.7-1.1c-0.1-0.5-0.2-1.1-0.2-1.8v-10.3H287v-2.4
			h2.8v-4.9h2.7v4.9H295.6z"/>
		<path class="st7" d="M298.8,113.6v-3.3h2.7v3.3H298.8z M301.4,116.5v16.2h-2.7v-16.2H301.4z"/>
		<path class="st7" d="M305.2,121.3c0.3-1,0.8-1.9,1.5-2.7c0.7-0.8,1.5-1.4,2.5-1.8c1-0.4,2.1-0.7,3.4-0.7c1.3,0,2.4,0.2,3.4,0.7
			s1.8,1,2.5,1.8s1.2,1.7,1.5,2.7c0.3,1,0.5,2.2,0.5,3.3c0,1.2-0.2,2.3-0.5,3.3s-0.8,1.9-1.5,2.7c-0.7,0.8-1.5,1.4-2.5,1.8
			s-2.1,0.6-3.4,0.6c-1.3,0-2.4-0.2-3.4-0.6c-1-0.4-1.8-1-2.5-1.8c-0.7-0.8-1.2-1.7-1.5-2.7c-0.3-1-0.5-2.1-0.5-3.3
			C304.7,123.4,304.9,122.3,305.2,121.3z M307.9,127.3c0.3,0.8,0.6,1.4,1.1,1.9c0.5,0.5,1,0.9,1.6,1.2c0.6,0.3,1.3,0.4,2,0.4
			s1.3-0.1,2-0.4c0.6-0.3,1.2-0.7,1.6-1.2c0.5-0.5,0.8-1.2,1.1-1.9c0.3-0.8,0.4-1.6,0.4-2.6s-0.1-1.9-0.4-2.6
			c-0.3-0.8-0.6-1.4-1.1-1.9c-0.5-0.5-1-0.9-1.6-1.2c-0.6-0.3-1.3-0.4-2-0.4s-1.3,0.1-2,0.4c-0.6,0.3-1.2,0.7-1.6,1.2
			c-0.5,0.5-0.8,1.2-1.1,1.9c-0.3,0.8-0.4,1.6-0.4,2.6S307.6,126.5,307.9,127.3z"/>
		<path class="st7" d="M326.1,116.5v2.6h0.1c1.1-2,2.9-3,5.3-3c1.1,0,2,0.1,2.7,0.4c0.7,0.3,1.3,0.7,1.7,1.2
			c0.4,0.5,0.7,1.1,0.9,1.9c0.2,0.7,0.3,1.5,0.3,2.4v10.7h-2.7v-11c0-1-0.3-1.8-0.9-2.4c-0.6-0.6-1.4-0.9-2.4-0.9
			c-0.8,0-1.5,0.1-2.1,0.4s-1.1,0.6-1.5,1.1c-0.4,0.5-0.7,1-0.9,1.6c-0.2,0.6-0.3,1.3-0.3,2v9.2h-2.7v-16.2H326.1z"/>
		<path class="st7" d="M359.4,132.3c-1.2,0.5-2.4,0.8-3.6,0.8c-1.5,0-2.7-0.2-3.6-0.7c-0.9-0.5-1.6-1-2.1-1.7s-0.8-1.3-1-2
			c-0.2-0.7-0.2-1.3-0.2-1.7c0-0.9,0.1-1.7,0.4-2.3c0.3-0.7,0.7-1.3,1.1-1.8c0.5-0.5,1-1,1.7-1.4s1.3-0.8,2-1.2
			c-0.3-0.4-0.6-0.9-0.9-1.3s-0.6-0.8-0.8-1.2c-0.2-0.4-0.4-0.8-0.6-1.3c-0.1-0.4-0.2-1-0.2-1.5c0-0.6,0.1-1.2,0.3-1.7
			c0.2-0.6,0.5-1,1-1.5c0.4-0.4,1-0.8,1.6-1c0.6-0.3,1.3-0.4,2.2-0.4c0.7,0,1.4,0.1,2,0.3s1.2,0.5,1.7,0.9c0.5,0.4,0.9,0.9,1.2,1.4
			s0.5,1.2,0.5,2c0,0.7-0.1,1.3-0.3,1.9c-0.2,0.6-0.5,1.1-0.9,1.6c-0.4,0.5-0.8,0.9-1.4,1.3c-0.5,0.4-1,0.7-1.6,1.1l4,4.9
			c0.4-1.2,0.7-2.3,0.7-3.5h2.5c-0.1,0.7-0.1,1.2-0.2,1.7s-0.2,0.9-0.3,1.3c-0.1,0.4-0.3,0.8-0.4,1.2c-0.2,0.4-0.4,0.8-0.6,1.3
			l4.4,5.1h-3.5l-2.4-2.8C361.5,131,360.5,131.8,359.4,132.3z M354,122.8c-0.5,0.3-0.9,0.7-1.2,1.1c-0.4,0.4-0.6,0.8-0.8,1.3
			c-0.2,0.5-0.3,1.1-0.3,1.7c0,0.6,0.1,1.1,0.4,1.6c0.2,0.5,0.6,0.9,1,1.2c0.4,0.3,0.9,0.6,1.4,0.8c0.5,0.2,1,0.3,1.6,0.3
			c1,0,1.9-0.2,2.7-0.7s1.5-1.1,2-1.9l-5.1-6.2C355,122.2,354.5,122.5,354,122.8z M357.4,118.3c0.4-0.3,0.7-0.5,1-0.8
			c0.3-0.3,0.5-0.7,0.7-1.1c0.2-0.4,0.3-0.8,0.3-1.3c0-0.6-0.2-1.2-0.7-1.7c-0.5-0.5-1.1-0.7-1.9-0.7c-0.6,0-1.2,0.2-1.8,0.6
			c-0.5,0.4-0.8,1-0.8,1.8c0,0.3,0.1,0.7,0.2,1c0.1,0.3,0.3,0.7,0.5,1c0.2,0.3,0.4,0.6,0.7,1c0.3,0.3,0.5,0.6,0.8,0.9
			C356.7,118.7,357,118.5,357.4,118.3z"/>
		<path class="st7" d="M376.3,112.8v-2.5h17.9v2.5h-7.5v19.9h-3v-19.9H376.3z"/>
		<path class="st7" d="M404.3,131.7c-1.2,0.9-2.7,1.4-4.6,1.4c-1.3,0-2.4-0.2-3.4-0.6c-1-0.4-1.8-1-2.4-1.8
			c-0.6-0.8-1.1-1.7-1.5-2.7c-0.3-1-0.5-2.2-0.5-3.4c0-1.2,0.2-2.4,0.6-3.4s0.9-1.9,1.6-2.7c0.7-0.8,1.5-1.3,2.4-1.8
			c0.9-0.4,2-0.6,3.1-0.6c1.4,0,2.6,0.3,3.6,0.9c1,0.6,1.7,1.4,2.3,2.3c0.6,0.9,1,1.9,1.2,3c0.2,1.1,0.3,2.1,0.3,3.1h-12.1
			c0,0.7,0.1,1.4,0.3,2c0.2,0.6,0.5,1.2,0.9,1.7c0.4,0.5,1,0.9,1.6,1.2s1.4,0.4,2.3,0.4c1.1,0,2.1-0.3,2.8-0.8
			c0.7-0.5,1.2-1.3,1.4-2.4h2.6C406.3,129.4,405.5,130.8,404.3,131.7z M403.6,121.3c-0.2-0.6-0.6-1.1-1-1.5c-0.4-0.4-0.9-0.7-1.4-1
			c-0.6-0.2-1.2-0.4-1.8-0.4c-0.7,0-1.3,0.1-1.9,0.4c-0.6,0.2-1,0.6-1.4,1c-0.4,0.4-0.7,0.9-0.9,1.5c-0.2,0.6-0.4,1.1-0.4,1.8h9.3
			C404,122.4,403.9,121.8,403.6,121.3z"/>
		<path class="st7" d="M419.4,119.3c-0.7-0.6-1.6-0.8-2.7-0.8c-1,0-1.8,0.2-2.4,0.5c-0.6,0.4-1.2,0.8-1.6,1.4
			c-0.4,0.6-0.7,1.3-0.8,2c-0.2,0.8-0.3,1.6-0.3,2.4c0,0.8,0.1,1.5,0.3,2.2c0.2,0.7,0.5,1.3,0.8,1.9c0.4,0.6,0.9,1,1.5,1.3
			c0.6,0.3,1.3,0.5,2.2,0.5c1.3,0,2.3-0.3,3.1-1c0.7-0.7,1.2-1.7,1.4-2.9h2.7c-0.3,2-1,3.6-2.2,4.6c-1.2,1.1-2.8,1.6-4.9,1.6
			c-1.2,0-2.3-0.2-3.3-0.6s-1.7-1-2.4-1.7s-1.1-1.6-1.4-2.6c-0.3-1-0.5-2.1-0.5-3.3s0.2-2.3,0.5-3.4c0.3-1.1,0.8-2,1.4-2.8
			c0.6-0.8,1.4-1.4,2.4-1.9s2.1-0.7,3.4-0.7c0.9,0,1.8,0.1,2.6,0.3c0.8,0.2,1.5,0.6,2.1,1s1.1,1,1.5,1.7s0.6,1.5,0.8,2.5h-2.8
			C420.5,120.7,420,119.9,419.4,119.3z"/>
		<path class="st7" d="M429.2,110.3v8.6h0.1c0.2-0.5,0.5-0.9,0.9-1.3c0.4-0.3,0.8-0.6,1.3-0.8c0.5-0.2,1-0.4,1.5-0.5
			c0.5-0.1,1-0.2,1.5-0.2c1.1,0,2,0.1,2.7,0.4c0.7,0.3,1.3,0.7,1.7,1.2c0.4,0.5,0.7,1.1,0.9,1.9c0.2,0.7,0.3,1.5,0.3,2.4v10.7h-2.7
			v-11c0-1-0.3-1.8-0.9-2.4c-0.6-0.6-1.4-0.9-2.4-0.9c-0.8,0-1.5,0.1-2.1,0.4c-0.6,0.3-1.1,0.6-1.5,1.1c-0.4,0.5-0.7,1-0.9,1.6
			c-0.2,0.6-0.3,1.3-0.3,2v9.2h-2.7v-22.4H429.2z"/>
		<path class="st7" d="M446.5,116.5v2.6h0.1c1.1-2,2.9-3,5.3-3c1.1,0,2,0.1,2.7,0.4c0.7,0.3,1.3,0.7,1.7,1.2
			c0.4,0.5,0.7,1.1,0.9,1.9c0.2,0.7,0.3,1.5,0.3,2.4v10.7h-2.7v-11c0-1-0.3-1.8-0.9-2.4c-0.6-0.6-1.4-0.9-2.4-0.9
			c-0.8,0-1.5,0.1-2.1,0.4c-0.6,0.3-1.1,0.6-1.5,1.1c-0.4,0.5-0.7,1-0.9,1.6c-0.2,0.6-0.3,1.3-0.3,2v9.2H444v-16.2H446.5z"/>
		<path class="st7" d="M461,121.3c0.3-1,0.8-1.9,1.5-2.7c0.7-0.8,1.5-1.4,2.5-1.8s2.1-0.7,3.4-0.7c1.3,0,2.4,0.2,3.4,0.7
			c1,0.4,1.8,1,2.5,1.8c0.7,0.8,1.2,1.7,1.5,2.7c0.3,1,0.5,2.2,0.5,3.3c0,1.2-0.2,2.3-0.5,3.3c-0.3,1-0.8,1.9-1.5,2.7
			c-0.7,0.8-1.5,1.4-2.5,1.8c-1,0.4-2.1,0.6-3.4,0.6c-1.3,0-2.4-0.2-3.4-0.6s-1.8-1-2.5-1.8c-0.7-0.8-1.2-1.7-1.5-2.7
			c-0.3-1-0.5-2.1-0.5-3.3C460.5,123.4,460.7,122.3,461,121.3z M463.8,127.3c0.3,0.8,0.6,1.4,1.1,1.9s1,0.9,1.6,1.2
			c0.6,0.3,1.3,0.4,2,0.4s1.3-0.1,2-0.4c0.6-0.3,1.2-0.7,1.6-1.2s0.8-1.2,1.1-1.9s0.4-1.6,0.4-2.6s-0.1-1.9-0.4-2.6
			s-0.6-1.4-1.1-1.9s-1-0.9-1.6-1.2c-0.6-0.3-1.3-0.4-2-0.4s-1.3,0.1-2,0.4c-0.6,0.3-1.2,0.7-1.6,1.2s-0.8,1.2-1.1,1.9
			s-0.4,1.6-0.4,2.6S463.5,126.5,463.8,127.3z"/>
		<path class="st7" d="M482.3,110.3v22.4h-2.7v-22.4H482.3z"/>
		<path class="st7" d="M486,121.3c0.3-1,0.8-1.9,1.5-2.7c0.7-0.8,1.5-1.4,2.5-1.8s2.1-0.7,3.4-0.7c1.3,0,2.4,0.2,3.4,0.7
			c1,0.4,1.8,1,2.5,1.8c0.7,0.8,1.2,1.7,1.5,2.7c0.3,1,0.5,2.2,0.5,3.3c0,1.2-0.2,2.3-0.5,3.3c-0.3,1-0.8,1.9-1.5,2.7
			c-0.7,0.8-1.5,1.4-2.5,1.8c-1,0.4-2.1,0.6-3.4,0.6c-1.3,0-2.4-0.2-3.4-0.6s-1.8-1-2.5-1.8c-0.7-0.8-1.2-1.7-1.5-2.7
			c-0.3-1-0.5-2.1-0.5-3.3C485.5,123.4,485.7,122.3,486,121.3z M488.7,127.3c0.3,0.8,0.6,1.4,1.1,1.9s1,0.9,1.6,1.2
			c0.6,0.3,1.3,0.4,2,0.4s1.3-0.1,2-0.4c0.6-0.3,1.2-0.7,1.6-1.2s0.8-1.2,1.1-1.9s0.4-1.6,0.4-2.6s-0.1-1.9-0.4-2.6
			s-0.6-1.4-1.1-1.9s-1-0.9-1.6-1.2c-0.6-0.3-1.3-0.4-2-0.4s-1.3,0.1-2,0.4c-0.6,0.3-1.2,0.7-1.6,1.2s-0.8,1.2-1.1,1.9
			s-0.4,1.6-0.4,2.6S488.5,126.5,488.7,127.3z"/>
		<path class="st7" d="M516.6,137.3c-1.2,1.3-3.1,2-5.7,2c-0.8,0-1.5-0.1-2.3-0.3c-0.8-0.2-1.5-0.4-2.1-0.8
			c-0.6-0.4-1.2-0.9-1.6-1.5c-0.4-0.6-0.6-1.3-0.7-2.2h2.7c0,0.5,0.2,0.9,0.5,1.2c0.3,0.3,0.6,0.6,1,0.8c0.4,0.2,0.9,0.4,1.3,0.5
			c0.5,0.1,0.9,0.1,1.4,0.1c0.9,0,1.6-0.2,2.2-0.5s1.1-0.7,1.5-1.3c0.4-0.5,0.7-1.2,0.9-1.9c0.2-0.8,0.3-1.6,0.3-2.5V130h-0.1
			c-0.5,1-1.2,1.7-2.1,2.2c-0.9,0.5-1.9,0.7-3,0.7c-1.2,0-2.3-0.2-3.2-0.7s-1.7-1-2.3-1.8c-0.6-0.7-1.1-1.6-1.4-2.6
			c-0.3-1-0.5-2-0.5-3.2c0-1,0.1-2,0.4-3c0.3-1,0.7-1.9,1.3-2.8c0.6-0.8,1.4-1.5,2.3-2c1-0.5,2.1-0.8,3.5-0.8c1,0,2,0.2,2.8,0.7
			c0.9,0.5,1.5,1.1,2,2h0v-2.3h2.5v14.8C518.4,134,517.8,136,516.6,137.3z M513.2,130c0.6-0.4,1.1-0.8,1.5-1.4
			c0.4-0.6,0.7-1.3,0.8-2c0.2-0.8,0.3-1.5,0.3-2.3c0-0.7-0.1-1.4-0.3-2.1c-0.2-0.7-0.4-1.3-0.8-1.9s-0.8-1-1.4-1.3s-1.3-0.5-2.1-0.5
			c-0.9,0-1.6,0.2-2.2,0.5c-0.6,0.3-1.1,0.8-1.5,1.3c-0.4,0.5-0.7,1.2-0.8,1.9c-0.2,0.7-0.3,1.5-0.3,2.2c0,0.7,0.1,1.5,0.2,2.2
			s0.4,1.4,0.8,2c0.4,0.6,0.8,1.1,1.4,1.4s1.3,0.5,2.2,0.5S512.6,130.4,513.2,130z"/>
		<path class="st7" d="M528.8,134.9c-0.3,0.8-0.6,1.5-0.9,2c-0.3,0.5-0.6,1-1,1.3c-0.4,0.3-0.8,0.6-1.2,0.8c-0.5,0.2-1,0.2-1.6,0.2
			c-0.3,0-0.6,0-0.9-0.1c-0.3,0-0.6-0.1-0.9-0.2v-2.4c0.2,0.1,0.5,0.2,0.8,0.3c0.3,0.1,0.6,0.1,0.8,0.1c0.5,0,1-0.1,1.4-0.4
			c0.4-0.3,0.6-0.6,0.8-1.1l1.1-2.7l-6.4-16.1h3l4.7,13.3h0.1l4.6-13.3h2.8L528.8,134.9z"/>
		<path class="st7" d="M550.3,110.3v9.6h11.8v-9.6h3v22.4h-3v-10.3h-11.8v10.3h-3v-22.4H550.3z"/>
		<path class="st7" d="M585.6,131.1c-1.5,1.4-3.7,2.2-6.5,2.2c-2.9,0-5.1-0.7-6.8-2.1c-1.6-1.4-2.4-3.6-2.4-6.5v-14.3h3v14.3
			c0,2,0.5,3.5,1.6,4.6c1.1,1,2.6,1.6,4.6,1.6c1.9,0,3.4-0.5,4.3-1.6c1-1,1.5-2.6,1.5-4.6v-14.3h3v14.3
			C587.9,127.5,587.1,129.7,585.6,131.1z"/>
		<path class="st7" d="M600.8,110.3c0.5,0,1,0,1.6,0c0.6,0,1.1,0,1.6,0.1c0.5,0.1,1.1,0.1,1.5,0.2c0.5,0.1,0.9,0.3,1.2,0.5
			c0.7,0.4,1.4,1,1.9,1.8s0.8,1.7,0.8,2.9c0,1.2-0.3,2.2-0.9,3.1c-0.6,0.9-1.4,1.5-2.5,1.9v0.1c1.4,0.3,2.4,0.9,3.2,1.9
			c0.7,1,1.1,2.1,1.1,3.5c0,0.8-0.1,1.6-0.4,2.4c-0.3,0.8-0.7,1.5-1.3,2.1s-1.3,1.1-2.1,1.4c-0.8,0.4-1.8,0.5-2.9,0.5h-10.8v-22.4
			H600.8z M601.6,120c1.7,0,2.9-0.3,3.7-0.9c0.7-0.6,1.1-1.5,1.1-2.7c0-0.8-0.1-1.4-0.4-1.9c-0.3-0.5-0.6-0.8-1-1.1
			s-0.9-0.4-1.5-0.5c-0.6-0.1-1.2-0.1-1.8-0.1h-6v7.1H601.6z M603.1,130.2c1.3,0,2.3-0.4,3.1-1.1c0.7-0.7,1.1-1.7,1.1-3
			c0-0.7-0.1-1.3-0.4-1.8c-0.3-0.5-0.6-0.9-1.1-1.1c-0.5-0.3-1-0.5-1.6-0.6s-1.2-0.2-1.8-0.2h-6.8v7.8H603.1z"/>
	</g>
	<g class="st6">
		<path class="st7" d="M230.9,93.4l-0.5-7.2h-0.1c-0.7,1.4-1.5,2.6-2.5,3.6c-1,1-2.1,1.8-3.2,2.5c-1.2,0.6-2.4,1.1-3.8,1.4
			c-1.3,0.3-2.7,0.4-4.2,0.4c-3.1,0-5.8-0.6-8.2-1.7c-2.3-1.1-4.3-2.6-5.8-4.5c-1.6-1.9-2.7-4.1-3.5-6.5c-0.8-2.5-1.2-5.1-1.2-7.8
			s0.4-5.3,1.2-7.8c0.8-2.5,1.9-4.7,3.5-6.6c1.6-1.9,3.5-3.4,5.8-4.5c2.3-1.1,5.1-1.7,8.2-1.7c2.1,0,4,0.3,5.9,0.8
			c1.8,0.6,3.5,1.4,4.9,2.5c1.4,1.1,2.7,2.5,3.7,4.1c1,1.6,1.7,3.5,2.1,5.7h-3.8c-0.1-1.1-0.5-2.3-1.1-3.5c-0.6-1.2-1.5-2.2-2.6-3.2
			c-1.1-1-2.4-1.7-3.9-2.4c-1.5-0.6-3.2-0.9-5.1-0.9c-2.6,0-4.9,0.5-6.8,1.5s-3.4,2.3-4.6,4c-1.2,1.6-2.1,3.5-2.7,5.6
			c-0.6,2.1-0.9,4.2-0.9,6.4c0,2.1,0.3,4.3,0.9,6.3c0.6,2.1,1.5,4,2.7,5.6c1.2,1.6,2.7,3,4.6,4c1.9,1,4.1,1.5,6.8,1.5
			c2.2,0,4.1-0.4,5.8-1.1c1.7-0.7,3.2-1.7,4.4-3c1.2-1.3,2.1-2.8,2.7-4.6c0.6-1.8,0.9-3.7,0.8-5.8h-13.5v-3.2h16.8v20.1H230.9z"/>
		<path class="st7" d="M256.7,53.9l15.5,39.6h-4l-4.8-12.3h-18l-4.8,12.3h-4l15.9-39.6H256.7z M262.1,77.9l-7.7-20.3l-7.9,20.3
			H262.1z"/>
		<path class="st7" d="M294,53.9c1.6,0,3.2,0.2,4.6,0.6c1.5,0.4,2.7,1,3.8,1.9c1.1,0.8,2,1.9,2.6,3.2c0.6,1.3,1,2.9,1,4.6
			c0,2.5-0.6,4.7-1.9,6.5c-1.3,1.8-3.2,3-5.8,3.5v0.1c1.3,0.2,2.4,0.5,3.2,1c0.9,0.5,1.5,1.1,2.1,1.9c0.5,0.8,0.9,1.7,1.2,2.7
			c0.2,1,0.4,2.1,0.5,3.3c0,0.7,0.1,1.5,0.1,2.4c0,1,0.1,1.9,0.2,2.9s0.3,1.9,0.5,2.8c0.2,0.9,0.6,1.5,1,2h-4.2
			c-0.2-0.4-0.4-0.8-0.5-1.4c-0.1-0.5-0.2-1.1-0.3-1.7c-0.1-0.6-0.1-1.1-0.1-1.7c0-0.6-0.1-1-0.1-1.4c-0.1-1.4-0.2-2.8-0.4-4.2
			c-0.2-1.4-0.5-2.6-1.1-3.7c-0.5-1.1-1.3-2-2.3-2.6c-1-0.7-2.4-1-4.2-0.9h-14.3v17.6h-3.8V53.9H294z M293.7,72.6
			c1.1,0,2.2-0.2,3.3-0.5c1-0.4,1.9-0.9,2.7-1.5c0.8-0.7,1.4-1.5,1.9-2.4c0.5-0.9,0.7-2,0.7-3.2c0-2.4-0.7-4.4-2.1-5.8
			c-1.4-1.4-3.5-2.1-6.4-2.1h-14.1v15.6H293.7z"/>
		<path class="st7" d="M326.5,53.9c6,0.1,10.6,1.8,13.6,5.1c3,3.2,4.6,8.1,4.6,14.7s-1.5,11.5-4.6,14.7c-3,3.2-7.6,4.9-13.6,5.1
			h-13.7V53.9H326.5z M324.6,90.2c2.8,0,5.3-0.3,7.3-0.9c2.1-0.6,3.7-1.6,5.1-2.9c1.3-1.3,2.3-3,2.9-5.2c0.6-2.1,0.9-4.6,0.9-7.6
			s-0.3-5.5-0.9-7.6c-0.6-2.1-1.6-3.8-2.9-5.2c-1.3-1.3-3-2.3-5.1-2.9c-2.1-0.6-4.5-0.9-7.3-0.9h-8v33.2H324.6z"/>
		<path class="st7" d="M378.1,53.9v3.2h-23.6v14.3h22.1v3.2h-22.1v15.6h23.8v3.2h-27.6V53.9H378.1z"/>
		<path class="st7" d="M387.8,53.9l23.1,33.5h0.1V53.9h3.8v39.6h-4.2L387.5,60h-0.1v33.5h-3.8V53.9H387.8z"/>
		<path class="st7" d="M456.2,53.9c1.6,0,3.2,0.2,4.6,0.6c1.5,0.4,2.7,1,3.8,1.9c1.1,0.8,2,1.9,2.6,3.2c0.6,1.3,1,2.9,1,4.6
			c0,2.5-0.6,4.7-1.9,6.5c-1.3,1.8-3.2,3-5.8,3.5v0.1c1.3,0.2,2.4,0.5,3.2,1c0.8,0.5,1.5,1.1,2.1,1.9c0.5,0.8,0.9,1.7,1.2,2.7
			c0.2,1,0.4,2.1,0.5,3.3c0,0.7,0.1,1.5,0.1,2.4c0,1,0.1,1.9,0.2,2.9c0.1,1,0.3,1.9,0.5,2.8c0.2,0.9,0.6,1.5,1,2h-4.2
			c-0.2-0.4-0.4-0.8-0.5-1.4c-0.1-0.5-0.2-1.1-0.3-1.7c-0.1-0.6-0.1-1.1-0.1-1.7c0-0.6-0.1-1-0.1-1.4c-0.1-1.4-0.2-2.8-0.4-4.2
			c-0.2-1.4-0.5-2.6-1.1-3.7c-0.5-1.1-1.3-2-2.3-2.6c-1-0.7-2.4-1-4.2-0.9h-14.3v17.6h-3.8V53.9H456.2z M455.9,72.6
			c1.1,0,2.2-0.2,3.3-0.5c1-0.4,1.9-0.9,2.7-1.5c0.8-0.7,1.4-1.5,1.9-2.4s0.7-2,0.7-3.2c0-2.4-0.7-4.4-2.1-5.8
			c-1.4-1.4-3.5-2.1-6.4-2.1h-14.1v15.6H455.9z"/>
		<path class="st7" d="M474.1,65.8c0.8-2.5,1.9-4.7,3.5-6.6c1.6-1.9,3.5-3.4,5.8-4.5c2.3-1.1,5.1-1.7,8.2-1.7s5.8,0.6,8.1,1.7
			c2.3,1.1,4.3,2.6,5.8,4.5c1.6,1.9,2.7,4.1,3.5,6.6c0.8,2.5,1.2,5.1,1.2,7.8s-0.4,5.3-1.2,7.8c-0.8,2.5-1.9,4.7-3.5,6.5
			c-1.6,1.9-3.5,3.4-5.8,4.5c-2.3,1.1-5,1.7-8.1,1.7s-5.8-0.6-8.2-1.7c-2.3-1.1-4.3-2.6-5.8-4.5c-1.6-1.9-2.7-4.1-3.5-6.5
			c-0.8-2.5-1.2-5.1-1.2-7.8S473.4,68.3,474.1,65.8z M477.6,80c0.6,2.1,1.5,4,2.7,5.6c1.2,1.6,2.7,3,4.6,4c1.9,1,4.1,1.5,6.8,1.5
			s4.9-0.5,6.7-1.5c1.9-1,3.4-2.3,4.6-4c1.2-1.6,2.1-3.5,2.7-5.6s0.9-4.2,0.9-6.3c0-2.2-0.3-4.3-0.9-6.4c-0.6-2.1-1.5-3.9-2.7-5.6
			c-1.2-1.6-2.7-3-4.6-4c-1.9-1-4.1-1.5-6.7-1.5s-4.9,0.5-6.8,1.5s-3.4,2.3-4.6,4s-2.1,3.5-2.7,5.6c-0.6,2.1-0.9,4.2-0.9,6.4
			C476.7,75.8,477,77.9,477.6,80z"/>
		<path class="st7" d="M519.5,53.9v24.5c0,2.3,0.3,4.2,0.8,5.8s1.3,2.9,2.3,3.9s2.2,1.8,3.7,2.2c1.4,0.5,3.1,0.7,4.9,0.7
			c1.8,0,3.5-0.2,4.9-0.7c1.4-0.5,2.7-1.2,3.7-2.2s1.8-2.3,2.3-3.9c0.5-1.6,0.8-3.6,0.8-5.8V53.9h3.8v25.3c0,2-0.3,4-0.9,5.8
			c-0.6,1.8-1.5,3.4-2.7,4.8c-1.2,1.4-2.8,2.4-4.8,3.2c-1.9,0.8-4.3,1.2-7.1,1.2c-2.7,0-5.1-0.4-7-1.2c-1.9-0.8-3.5-1.9-4.8-3.2
			c-1.2-1.4-2.1-3-2.7-4.8c-0.6-1.8-0.9-3.8-0.9-5.8V53.9H519.5z"/>
		<path class="st7" d="M581.2,53.9v3.2h-13.8v36.4h-3.8V57.1h-13.7v-3.2H581.2z"/>
		<path class="st7" d="M612.3,53.9v3.2h-23.6v14.3h22.1v3.2h-22.1v15.6h23.8v3.2H585V53.9H612.3z"/>
	</g>
</g>
</svg>
